<svg width="260" height="296" viewBox="0 0 260 296" fill="none" xmlns="http://www.w3.org/2000/svg">
<g filter="url(#filter0_if_6_40)">
<path d="M2 140.195C2 56.0375 20.0375 38 104.195 38H155.805C239.963 38 258 56.0375 258 140.195V191.805C258 275.963 239.963 294 155.805 294H104.195C20.0375 294 2 275.963 2 191.805V140.195Z" fill="#2EC4B6"/>
</g>
<path d="M68.4647 243.96C61.7447 242 57.0547 240.04 54.3947 238.08C51.8747 236.12 50.6147 233.67 50.6147 230.73C50.6147 228.49 51.2447 225.34 52.5047 221.28C53.7647 217.22 55.5847 212.46 57.9647 207C60.4847 201.4 63.4247 195.24 66.7847 188.52C70.2847 181.8 74.2047 174.59 78.5447 166.89C74.9047 166.75 71.6147 166.68 68.6747 166.68C65.8747 166.54 63.5647 166.47 61.7447 166.47C62.5847 164.37 64.9647 162.55 68.8847 161.01C72.8047 159.47 77.9847 158.14 84.4247 157.02C89.8847 147.92 95.6947 139.24 101.855 130.98C108.155 122.72 114.455 115.16 120.755 108.3C127.055 101.3 133.355 95.21 139.655 90.03C145.955 84.71 151.975 80.51 157.715 77.43C157.855 76.45 157.925 75.61 157.925 74.91C158.065 74.21 158.135 73.72 158.135 73.44C160.095 73.44 162.685 73.93 165.905 74.91C169.265 75.89 172.485 77.08 175.565 78.48C178.785 79.88 181.585 81.35 183.965 82.89C186.485 84.29 187.885 85.48 188.165 86.46C183.545 94.58 178.995 106.76 174.515 123C170.035 139.1 166.325 158.42 163.385 180.96C162.685 186.56 162.055 192.93 161.495 200.07C161.075 207.21 160.865 215.19 160.865 224.01C160.865 227.09 160.865 230.24 160.865 233.46C160.865 236.68 161.005 240.04 161.285 243.54C161.005 243.68 160.725 243.75 160.445 243.75C160.165 243.75 159.605 243.75 158.765 243.75C156.805 243.75 154.495 243.4 151.835 242.7C149.315 242.14 146.795 241.37 144.275 240.39C141.895 239.55 139.795 238.57 137.975 237.45C136.295 236.33 135.245 235.35 134.825 234.51C134.685 232.69 134.615 230.87 134.615 229.05C134.615 227.37 134.615 225.55 134.615 223.59C134.615 214.91 134.895 206.09 135.455 197.13C136.155 188.17 137.275 178.93 138.815 169.41C136.855 169.27 134.265 169.13 131.045 168.99C127.825 168.71 124.185 168.5 120.125 168.36C116.205 168.22 111.935 168.08 107.315 167.94C102.835 167.66 98.4247 167.45 94.0847 167.31C90.7247 173.61 87.5747 179.91 84.6347 186.21C81.6947 192.37 79.1747 198.6 77.0747 204.9C74.6947 211.62 72.7347 218.34 71.1947 225.06C69.7947 231.78 68.8847 238.08 68.4647 243.96ZM149.525 117.75C150.085 115.79 150.715 113.13 151.415 109.77C152.255 106.27 153.025 102.63 153.725 98.85C150.225 100.11 146.305 102.42 141.965 105.78C137.765 109.14 133.355 113.34 128.735 118.38C124.255 123.28 119.635 128.88 114.875 135.18C110.255 141.34 105.775 147.92 101.435 154.92C113.195 153.94 126.565 153.31 141.545 153.03C142.665 147.15 143.855 141.34 145.115 135.6C146.515 129.72 147.985 123.77 149.525 117.75ZM198.791 235.98C196.551 235.7 194.171 234.72 191.651 233.04C189.271 231.5 187.731 229.75 187.031 227.79C187.031 226.11 187.241 223.94 187.661 221.28C188.221 218.62 188.851 215.96 189.551 213.3C190.251 210.5 190.951 207.91 191.651 205.53C192.351 203.01 192.841 201.12 193.121 199.86C194.801 199.86 196.901 200.28 199.421 201.12C202.081 201.96 204.741 203.15 207.401 204.69C210.201 206.09 212.791 207.77 215.171 209.73C217.691 211.55 219.581 213.44 220.841 215.4C219.581 218.2 217.971 220.86 216.011 223.38C214.051 225.9 211.951 228.07 209.711 229.89C207.611 231.85 205.581 233.32 203.621 234.3C201.661 235.42 200.051 235.98 198.791 235.98Z" fill="black"/>
<defs>
<filter id="filter0_if_6_40" x="0" y="36" width="262" height="262" filterUnits="userSpaceOnUse" color-interpolation-filters="sRGB">
<feFlood flood-opacity="0" result="BackgroundImageFix"/>
<feBlend mode="normal" in="SourceGraphic" in2="BackgroundImageFix" result="shape"/>
<feColorMatrix in="SourceAlpha" type="matrix" values="0 0 0 0 0 0 0 0 0 0 0 0 0 0 0 0 0 0 127 0" result="hardAlpha"/>
<feOffset dx="6" dy="8"/>
<feGaussianBlur stdDeviation="2"/>
<feComposite in2="hardAlpha" operator="arithmetic" k2="-1" k3="1"/>
<feColorMatrix type="matrix" values="0 0 0 0 0 0 0 0 0 0 0 0 0 0 0 0 0 0 0.25 0"/>
<feBlend mode="normal" in2="shape" result="effect1_innerShadow_6_40"/>
<feGaussianBlur stdDeviation="1" result="effect2_foregroundBlur_6_40"/>
</filter>
</defs>
</svg>
