<svg xmlns="http://www.w3.org/2000/svg" x="0px" y="0px" width="50" height="50" viewBox="0,0,256,256" style="fill:#000000;">
	<g fill="#f7df1e" fill-rule="nonzero" stroke="none" stroke-width="1" stroke-linecap="butt" stroke-linejoin="miter" stroke-miterlimit="10" stroke-dasharray="" stroke-dashoffset="0" font-family="none" font-weight="none" font-size="none" text-anchor="none" style="mix-blend-mode: normal">
		<g transform="scale(5.12,5.12)">
			<path d="M45.274,2.325c-0.19,-0.207 -0.457,-0.325 -0.738,-0.325h-39.072c-0.281,0 -0.548,0.118 -0.738,0.325c-0.19,0.207 -0.283,0.485 -0.258,0.764l3.52,39.427c0.037,0.412 0.324,0.759 0.722,0.873l16.01,4.573c0.089,0.025 0.182,0.038 0.274,0.038c0.092,0 0.185,-0.013 0.274,-0.038l16.024,-4.573c0.398,-0.114 0.685,-0.461 0.722,-0.873l3.518,-39.427c0.025,-0.279 -0.069,-0.557 -0.258,-0.764zM12,29.004l7,1.942v-19.946h4v26l-11,-3.051zM38.054,22l-1.054,12.25l-10,2.75v-4.601l6.75,-1.855l0.25,-3.75l-7,1.206v-17h12l-0.345,4h-7.655v8z"></path>
		</g>
	</g>
</svg>